<svg width="732" height="599" viewBox="0 0 732 599" fill="none" xmlns="http://www.w3.org/2000/svg">
<g clip-path="url(#clip0_402_6880)">
<path d="M49.9027 -0.0499878C57.7021 -0.917988 66.4501 -0.0939855 74.3481 -0.0819855L639.95 -0.0679779C676.246 -0.0799779 721.542 -5.71599 730.386 43.48C731.996 52.426 731.516 61.866 731.516 70.926L731.512 512.95C731.562 553.424 733.878 590.044 683.626 598.608L75.8961 598.63C41.3169 598.692 5.80054 594.352 0.923541 550.138C-0.079859 541.042 0.450539 531.498 0.455539 522.346L0.463534 78.266C0.438134 41.97 1.05695 4.61801 49.9027 -0.0499878ZM25.5533 128.996L25.5603 503.464C25.5493 529.974 16.9435 573.928 56.3041 573.816L652.886 573.508C668.704 573.532 684.804 576.016 697.698 565.036C711.536 548.844 706.482 526.204 706.474 505.47L706.466 128.996H25.5533ZM53.2155 25.038C25.9505 27.744 25.4325 46.492 25.5071 68.4L25.5533 103.494H251.75C261.24 103.504 270.744 103.624 280.232 103.494C265.51 80.554 237.91 48.032 226.95 25.038C169.064 25.922 111.106 24.284 53.2155 25.038ZM256.874 25.038C272.926 51.192 293.59 77.092 310.56 103.494L393.548 103.514C407.008 103.518 420.724 104.076 434.164 103.494C416.51 77.188 397.532 51.67 380.384 25.038L298.246 25.018C284.52 25.016 270.582 24.504 256.874 25.038ZM410.584 25.038C426.1 50.876 447.27 77.552 464.094 103.494H583.248C567.528 79.652 543.268 48.964 530.148 25.038H410.584ZM560.762 25.038C572.33 46.74 598.176 81.68 613.388 103.494H706.466L706.52 69.836C706.528 62.04 707.382 53.252 705.534 45.668C698.992 18.846 663.294 25.028 643.252 25.032L560.762 25.038Z" fill="#31CDEE"/>
<path d="M57.8981 50.994C64.3281 50.89 73.3761 49.872 79.2881 52.512C91.2921 57.874 86.1781 73.024 75.0301 76.496C68.4521 76.45 59.8501 77.96 53.8775 74.878C42.3611 68.938 46.1879 53.454 57.8981 50.994Z" fill="#31CDEE"/>
<path d="M119.82 50.994C126.102 50.482 135.998 49.682 141.932 51.846C154.638 56.476 150.622 71.976 140.29 76.496C135.608 76.914 123.42 76.92 119.164 75.646C106.154 71.744 108.946 55.49 119.82 50.994Z" fill="#31CDEE"/>
<path d="M185.382 50.994C220.594 46.924 219.014 72.054 201.958 76.496C195.274 76.486 185.912 78.116 180.082 74.59C169.042 67.912 173.754 53.034 185.382 50.994Z" fill="#31CDEE"/>
<path d="M158.5 183.494C185.92 183.078 213.406 183.492 240.832 183.492L517.732 183.514C534.434 183.534 551.39 182.828 568.054 183.448C604.524 184.808 594.99 230.958 594.97 255.844L594.982 438.684C594.982 469.692 604.33 510.034 567.37 520.498C561.66 520.932 555.648 520.55 549.908 520.542L186.964 520.516C168.394 520.524 141.744 525.46 134.932 502.302C132.118 492.732 133.508 452.288 133.518 440.21L133.512 251.104C133.502 223.936 125.434 192.314 158.5 183.494ZM158.5 318.472L158.496 474.982C158.5 481.68 157.996 488.938 159.082 495.562C167.944 496.746 183.446 495.466 192.99 495.484L459.538 495.512C473.894 495.512 558.86 497.998 567.37 493.28C571.17 486.162 569.296 458.602 569.3 449.5L569.316 341.78C569.326 334.124 569.896 326.074 569.288 318.472H158.5ZM158.5 269.508V293.5C204.004 294.094 249.602 293.5 295.116 293.5H569.288C570.238 285.824 569.216 277.288 569.288 269.508H158.5ZM259.71 208.498C249.43 218.93 235.682 232.642 226.95 244.002C245.886 244.474 264.9 243.89 283.848 244.002C293.798 232.298 306.326 220.262 316.98 208.498L278.626 208.536C272.396 208.542 265.912 208.916 259.71 208.498ZM530.148 208.498C520.944 216.86 504.11 234.424 497.492 244.002C510.944 244.494 524.546 243.984 538.018 244.002C548.394 244.018 558.926 244.37 569.288 244.002V208.498H530.148ZM351.754 208.498C340.254 219.916 329.624 232.246 318.462 244.002L355.132 243.968C361.232 243.96 367.598 243.53 373.664 244.002C382.724 235.064 399.3 217.942 406.544 208.498H351.754ZM441.712 208.498C430.142 219.834 418.74 231.762 408.132 244.002C425.902 244.022 443.792 244.486 461.548 244.002C472.974 232.62 484.15 220.44 495.016 208.498H441.712ZM161.032 208.498C156.296 212.732 158.66 237.298 158.5 244.002C169.61 244.006 180.736 244.126 191.846 244.002C196.202 238.276 201.106 233.006 206.062 227.798C212.39 221.354 218.874 215.03 225.106 208.498C203.8 209.036 182.358 208.49 161.032 208.498Z" fill="#31CDEE"/>
<path d="M312.378 346.182C324.4 344.374 350.568 358.754 362.298 363.432C378 369.692 425.196 384.436 431.702 398.938C443.952 426.234 404.972 436.002 387.836 443.388C376.146 448.6 364.336 453.566 352.58 458.632C315.318 474.688 292.05 479.902 291.988 430.504L291.972 404.096C291.972 384.942 285.094 349.526 312.378 346.182ZM316.98 372.232V445.362C336.232 438.71 361.66 427.944 380.384 419.252C389.204 415.788 397.586 411.54 406.544 408.356L359.068 389.074C345.116 383.356 331.184 377.3 316.98 372.232Z" fill="#31CDEE"/>
</g>
<defs>
<clipPath id="clip0_402_6880">
<rect width="732" height="599" fill="white"/>
</clipPath>
</defs>
</svg>
